HIERARCHY
ROOT Root
{
  OFFSET 0.0 0.0 0.0
  CHANNELS 6 Xposition Yposition Zposition Zrotation Yrotation Xrotation
  JOINT Hips
  {
    OFFSET 0.0 100.0 0.0
    CHANNELS 6 Xposition Yposition Zposition Zrotation Yrotation Xrotation
    JOINT Spine1
    {
      OFFSET 5.003913 -0.037094 -0.013727
      CHANNELS 3 Zrotation Yrotation Xrotation
      JOINT Spine2
      {
        OFFSET 7.125363 -1e-06 0.0
        CHANNELS 3 Zrotation Yrotation Xrotation
        JOINT Chest
        {
          OFFSET 7.594027 1e-06 0.0
          CHANNELS 3 Zrotation Yrotation Xrotation
          JOINT Neck1
          {
            OFFSET 26.313086 -0.460272 -0.181672
            CHANNELS 3 Zrotation Yrotation Xrotation
            JOINT Neck2
            {
              OFFSET 8.045911 0.0 0.0
              CHANNELS 3 Zrotation Yrotation Xrotation
              JOINT Head
              {
                OFFSET 6.432774 0.0 0.0
                CHANNELS 3 Zrotation Yrotation Xrotation
                JOINT HeadEnd
                {
                  OFFSET 16.169773 0.06451 0.00362
                  CHANNELS 3 Zrotation Yrotation Xrotation
                }
                JOINT Jaw
                {
                  OFFSET 0.108741 3.12938 0.002639
                  CHANNELS 3 Zrotation Yrotation Xrotation
                }
                JOINT LeftEye
                {
                  OFFSET 4.45173 8.166359 3.206392
                  CHANNELS 3 Zrotation Yrotation Xrotation
                }
                JOINT RightEye
                {
                  OFFSET 4.436895 8.135758 -3.222429
                  CHANNELS 3 Zrotation Yrotation Xrotation
                }
              }
            }
          }
          JOINT LeftShoulder
          {
            OFFSET 23.218927 5.195579 1.621656
            CHANNELS 3 Zrotation Yrotation Xrotation
            JOINT LeftArm
            {
              OFFSET 15.902118 2e-06 -2e-06
              CHANNELS 3 Zrotation Yrotation Xrotation
              JOINT LeftForeArm
              {
                OFFSET 28.739307 0.0 -1e-06
                CHANNELS 3 Zrotation Yrotation Xrotation
                JOINT LeftHand
                {
                  OFFSET 27.093981 -4e-06 0.0
                  CHANNELS 3 Zrotation Yrotation Xrotation
                  JOINT LeftHandThumb1
                  {
                    OFFSET 2.276781 3.380274 0.83384
                    CHANNELS 3 Zrotation Yrotation Xrotation
                    JOINT LeftHandThumb2
                    {
                      OFFSET 4.705309 -1e-06 -1e-06
                      CHANNELS 3 Zrotation Yrotation Xrotation
                      JOINT LeftHandThumb3
                      {
                        OFFSET 2.798515 0.0 3e-06
                        CHANNELS 3 Zrotation Yrotation Xrotation
                        JOINT LeftHandThumbEnd
                        {
                          OFFSET 3.180793 4e-06 -4e-06
                          CHANNELS 3 Zrotation Yrotation Xrotation
                        }
                      }
                    }
                  }
                  JOINT LeftHandIndex1
                  {
                    OFFSET 3.247786 2.352677 0.137192
                    CHANNELS 3 Zrotation Yrotation Xrotation
                    JOINT LeftHandIndex2
                    {
                      OFFSET 6.367095 1e-06 0.0
                      CHANNELS 3 Zrotation Yrotation Xrotation
                      JOINT LeftHandIndex3
                      {
                        OFFSET 3.662364 0.0 0.0
                        CHANNELS 3 Zrotation Yrotation Xrotation
                        JOINT LeftHandIndex4
                        {
                          OFFSET 2.329242 4e-06 -4e-06
                          CHANNELS 3 Zrotation Yrotation Xrotation
                          JOINT LeftHandIndexEnd
                          {
                            OFFSET 2.767823 1e-06 0.0
                            CHANNELS 3 Zrotation Yrotation Xrotation
                          }
                        }
                      }
                    }
                  }
                  JOINT LeftHandMiddle1
                  {
                    OFFSET 3.163612 0.945023 -0.406112
                    CHANNELS 3 Zrotation Yrotation Xrotation
                    JOINT LeftHandMiddle2
                    {
                      OFFSET 6.276789 3e-06 0.0
                      CHANNELS 3 Zrotation Yrotation Xrotation
                      JOINT LeftHandMiddle3
                      {
                        OFFSET 4.35652 -1e-06 4e-06
                        CHANNELS 3 Zrotation Yrotation Xrotation
                        JOINT LeftHandMiddle4
                        {
                          OFFSET 2.996877 0.0 8e-06
                          CHANNELS 3 Zrotation Yrotation Xrotation
                          JOINT LeftHandMiddleEnd
                          {
                            OFFSET 2.323256 3e-06 -4e-06
                            CHANNELS 3 Zrotation Yrotation Xrotation
                          }
                        }
                      }
                    }
                  }
                  JOINT LeftHandRing1
                  {
                    OFFSET 2.882606 -0.309162 0.107445
                    CHANNELS 3 Zrotation Yrotation Xrotation
                    JOINT LeftHandRing2
                    {
                      OFFSET 6.033198 0.0 4e-06
                      CHANNELS 3 Zrotation Yrotation Xrotation
                      JOINT LeftHandRing3
                      {
                        OFFSET 4.350578 3e-06 0.0
                        CHANNELS 3 Zrotation Yrotation Xrotation
                        JOINT LeftHandRing4
                        {
                          OFFSET 2.651321 2e-06 -7e-06
                          CHANNELS 3 Zrotation Yrotation Xrotation
                          JOINT LeftHandRingEnd
                          {
                            OFFSET 1.937663 1e-06 -4e-06
                            CHANNELS 3 Zrotation Yrotation Xrotation
                          }
                        }
                      }
                    }
                  }
                  JOINT LeftHandPinky1
                  {
                    OFFSET 2.865315 -1.525436 0.575687
                    CHANNELS 3 Zrotation Yrotation Xrotation
                    JOINT LeftHandPinky2
                    {
                      OFFSET 5.54936 1e-06 -8e-06
                      CHANNELS 3 Zrotation Yrotation Xrotation
                      JOINT LeftHandPinky3
                      {
                        OFFSET 3.070974 0.0 -4e-06
                        CHANNELS 3 Zrotation Yrotation Xrotation
                        JOINT LeftHandPinky4
                        {
                          OFFSET 1.549672 1e-06 0.0
                          CHANNELS 3 Zrotation Yrotation Xrotation
                          JOINT LeftHandPinkyEnd
                          {
                            OFFSET 1.952123 0.0 0.0
                            CHANNELS 3 Zrotation Yrotation Xrotation
                          }
                        }
                      }
                    }
                  }
                }
              }
            }
          }
          JOINT RightShoulder
          {
            OFFSET 23.161716 5.296122 -1.380114
            CHANNELS 3 Zrotation Yrotation Xrotation
            JOINT RightArm
            {
              OFFSET -16.027195 -2e-06 1.1e-05
              CHANNELS 3 Zrotation Yrotation Xrotation
              JOINT RightForeArm
              {
                OFFSET -28.736639 4e-06 2e-06
                CHANNELS 3 Zrotation Yrotation Xrotation
                JOINT RightHand
                {
                  OFFSET -27.133619 6e-06 0.0
                  CHANNELS 3 Zrotation Yrotation Xrotation
                  JOINT RightHandThumb1
                  {
                    OFFSET -2.274328 -3.351035 -0.83067
                    CHANNELS 3 Zrotation Yrotation Xrotation
                    JOINT RightHandThumb2
                    {
                      OFFSET -4.703594 -3e-06 2e-06
                      CHANNELS 3 Zrotation Yrotation Xrotation
                      JOINT RightHandThumb3
                      {
                        OFFSET -2.794935 -4e-06 -3e-06
                        CHANNELS 3 Zrotation Yrotation Xrotation
                        JOINT RightHandThumbEnd
                        {
                          OFFSET -3.183852 4e-06 1e-06
                          CHANNELS 3 Zrotation Yrotation Xrotation
                        }
                      }
                    }
                  }
                  JOINT RightHandIndex1
                  {
                    OFFSET -3.253496 -2.33755 -0.127667
                    CHANNELS 3 Zrotation Yrotation Xrotation
                    JOINT RightHandIndex2
                    {
                      OFFSET -6.344434 0.0 0.0
                      CHANNELS 3 Zrotation Yrotation Xrotation
                      JOINT RightHandIndex3
                      {
                        OFFSET -3.654871 0.0 -8e-06
                        CHANNELS 3 Zrotation Yrotation Xrotation
                        JOINT RightHandIndex4
                        {
                          OFFSET -2.327586 -1e-06 0.0
                          CHANNELS 3 Zrotation Yrotation Xrotation
                          JOINT RightHandIndexEnd
                          {
                            OFFSET -2.770001 3e-06 8e-06
                            CHANNELS 3 Zrotation Yrotation Xrotation
                          }
                        }
                      }
                    }
                  }
                  JOINT RightHandMiddle1
                  {
                    OFFSET -3.168223 -0.944764 0.411762
                    CHANNELS 3 Zrotation Yrotation Xrotation
                    JOINT RightHandMiddle2
                    {
                      OFFSET -6.266691 -1e-06 -4e-06
                      CHANNELS 3 Zrotation Yrotation Xrotation
                      JOINT RightHandMiddle3
                      {
                        OFFSET -4.348901 0.0 0.0
                        CHANNELS 3 Zrotation Yrotation Xrotation
                        JOINT RightHandMiddle4
                        {
                          OFFSET -3.00024 2e-06 -4e-06
                          CHANNELS 3 Zrotation Yrotation Xrotation
                          JOINT RightHandMiddleEnd
                          {
                            OFFSET -2.321477 -4e-06 -4e-06
                            CHANNELS 3 Zrotation Yrotation Xrotation
                          }
                        }
                      }
                    }
                  }
                  JOINT RightHandRing1
                  {
                    OFFSET -2.885654 0.293261 -0.119232
                    CHANNELS 3 Zrotation Yrotation Xrotation
                    JOINT RightHandRing2
                    {
                      OFFSET -6.032835 -1e-06 -4e-06
                      CHANNELS 3 Zrotation Yrotation Xrotation
                      JOINT RightHandRing3
                      {
                        OFFSET -4.33881 0.0 -4e-06
                        CHANNELS 3 Zrotation Yrotation Xrotation
                        JOINT RightHandRing4
                        {
                          OFFSET -2.654903 -4e-06 -4e-06
                          CHANNELS 3 Zrotation Yrotation Xrotation
                          JOINT RightHandRingEnd
                          {
                            OFFSET -1.935122 0.0 4e-06
                            CHANNELS 3 Zrotation Yrotation Xrotation
                          }
                        }
                      }
                    }
                  }
                  JOINT RightHandPinky1
                  {
                    OFFSET -2.866241 1.503904 -0.60527
                    CHANNELS 3 Zrotation Yrotation Xrotation
                    JOINT RightHandPinky2
                    {
                      OFFSET -5.553177 -2e-06 0.0
                      CHANNELS 3 Zrotation Yrotation Xrotation
                      JOINT RightHandPinky3
                      {
                        OFFSET -3.062664 -1e-06 -4e-06
                        CHANNELS 3 Zrotation Yrotation Xrotation
                        JOINT RightHandPinky4
                        {
                          OFFSET -1.546529 2e-06 4e-06
                          CHANNELS 3 Zrotation Yrotation Xrotation
                          JOINT RightHandPinkyEnd
                          {
                            OFFSET -1.952341 0.0 -4e-06
                            CHANNELS 3 Zrotation Yrotation Xrotation
                          }
                        }
                      }
                    }
                  }
                }
              }
            }
          }
        }
      }
    }
    JOINT LeftLeg
    {
      OFFSET -8.443107 2.567604 10.043214
      CHANNELS 3 Zrotation Yrotation Xrotation
      JOINT LeftShin
      {
        OFFSET 43.229198 1e-06 -1e-06
        CHANNELS 3 Zrotation Yrotation Xrotation
        JOINT LeftFoot
        {
          OFFSET 42.298611 1e-06 1e-06
          CHANNELS 3 Zrotation Yrotation Xrotation
          JOINT LeftToeBase
          {
            OFFSET 14.165858 1e-06 0.0
            CHANNELS 3 Zrotation Yrotation Xrotation
            JOINT LeftToeEnd
            {
              OFFSET 6.7141 -0.234461 0.0
              CHANNELS 3 Zrotation Yrotation Xrotation
            }
          }
        }
      }
    }
    JOINT RightLeg
    {
      OFFSET -8.303923 2.592729 -10.047278
      CHANNELS 3 Zrotation Yrotation Xrotation
      JOINT RightShin
      {
        OFFSET -43.369682 0.0 1e-06
        CHANNELS 3 Zrotation Yrotation Xrotation
        JOINT RightFoot
        {
          OFFSET -42.260784 4e-06 2e-06
          CHANNELS 3 Zrotation Yrotation Xrotation
          JOINT RightToeBase
          {
            OFFSET -14.222245 -2e-06 -1e-06
            CHANNELS 3 Zrotation Yrotation Xrotation
            JOINT RightToeEnd
            {
              OFFSET -6.660062 0.232574 -2e-06
              CHANNELS 3 Zrotation Yrotation Xrotation
            }
          }
        }
      }
    }
  }
}
MOTION
Frames: 4
Frame Time: 0.03333333333333333
0.0 0.0 0.0 0.0 -0.0 0.0 -25.939297 51.426971 166.460052 102.856522 -53.247025 72.392944 18.539654 -0.320874 0.828677 -5.084501 -0.595686 -0.74453 15.620547 -1.253272 -4.258905 14.533195 2.831988 3.931993 -2.338304 -0.814241 6.40137 -23.258175 -3.488684 7.409097 4e-06 0.0 0.0 -0.211044 0.172446 -0.025534 -0.080639 0.148529 -0.015113 -0.100951 0.193016 -0.032308 50.58601 -72.772049 -43.379848 53.02248 -7.355261 -52.743256 45.201797 0.668349 0.509426 33.22517 54.793121 53.148926 17.636641 -26.322739 52.411201 -19.466665 -14.395598 29.410395 -1e-06 -8.774822 -2e-06 15.838299 -18.591045 6.91972 -0.609777 -1.795654 -3.889326 -4.807091 -11.046814 -2.93785 3e-06 -20.976021 -0.0 -5.019973 -25.033564 -4.031884 5e-06 -1e-06 0.0 -10.634537 -5.686973 -3.565589 10.573275 -17.922951 -3.113899 1e-06 -13.821213 1e-06 -0.501777 -31.181505 -4.027018 -12.236362 -59.624088 7.723842 -13.982718 -7.150201 -2.875042 13.772731 -8.401491 -3.218241 0.347732 -34.211555 0.771655 -0.963029 -17.733372 2.62102 1e-06 -0.0 0.0 -17.346426 -20.095224 -4.201782 21.757565 -1.638373 3.866429 1e-06 -6.338825 0.0 -1.697589 -22.591751 -6.19401 -0.0 -4e-06 -2e-06 -167.789139 -71.370728 -11.446925 88.843231 -11.185246 -41.62458 12.453485 -0.222642 0.074831 16.220116 62.855991 17.466873 22.182123 -20.375898 49.933346 -16.701815 -16.74353 28.476538 -4e-06 -12.690603 -3e-06 15.50538 -17.933769 3.089926 -0.105921 -1.513856 -4.275884 -5.039043 -5.612875 -2.953557 3e-06 -11.020526 -3e-06 -6.111299 -15.895338 -3.840475 0.0 1e-06 1e-06 -10.283374 -5.680291 -4.341841 11.028296 -11.302407 -2.372632 -1.384271 -14.238585 -6.320128 -0.625439 -26.924198 -3.827603 -3.613498 -48.945774 -4.457867 -13.708526 -7.363478 -3.720944 18.141151 -14.052742 -3.242673 6e-06 -18.787271 -3e-06 -0.429712 -8.456047 2.555504 1e-06 2e-06 0.0 -15.923541 -20.094486 -5.473588 30.419218 -7.190827 1.735927 2e-06 -8.16293 0.0 -1.861903 -22.861479 -6.167946 -1e-06 -3e-06 -1e-06 123.72094 -0.861156 3.260755 105.974037 0.518262 0.237797 -57.059834 17.900888 -13.981065 -8.11519 1.153641 2.300265 -0.999997 -0.0 -0.0 -40.578705 -1.052436 -1.898106 102.297462 -1.214369 0.052595 -62.954708 1.483809 -9.490701 -3.506518 0.476575 1.870269 -1.000003 0.0 -0.0 
0.0 0.0 0.0 0.0 -0.0 0.0 -26.079279 51.685207 167.577881 101.496635 -53.236141 73.751648 18.950838 -0.071158 0.79774 -4.967423 -0.563092 -1.117817 15.695894 -0.479396 -4.502392 14.457098 3.04062 4.096745 -2.373047 -1.025098 6.542917 -23.409103 -3.481379 7.682052 6e-06 0.0 -1e-06 -0.21592 0.127497 -0.017348 -0.086442 0.096188 -0.021939 -0.13281 0.152471 -0.006188 48.862133 -70.036827 -42.045551 49.08194 -0.488404 -52.171986 36.561947 0.049391 0.251784 22.885717 53.442379 41.337914 17.636633 -26.322725 52.41119 -19.46666 -14.395597 29.410389 -2e-06 -8.774822 -3e-06 16.088055 -18.630703 6.771811 -0.609777 -1.795654 -3.889328 -4.807088 -11.046809 -2.937852 6e-06 -20.976015 -1e-06 -5.019968 -25.033552 -4.031882 6e-06 -0.0 -0.0 -10.634535 -5.686971 -3.565589 10.573275 -17.922949 -3.1139 4e-06 -13.821206 0.0 -0.501773 -31.181505 -4.027017 -12.251459 -59.603611 7.621191 -13.982716 -7.150198 -2.875043 13.772731 -8.40149 -3.218241 0.347738 -34.211544 0.771652 -0.963028 -17.733368 2.62102 -0.0 1e-06 0.0 -17.346422 -20.095215 -4.201784 21.757561 -1.638376 3.86643 2e-06 -6.338822 0.0 -1.697587 -22.591742 -6.194008 0.0 -7e-06 -2e-06 -166.600998 -72.146439 -12.636967 89.11055 -11.212465 -40.487164 12.508555 -0.294057 0.047895 16.789188 62.950985 18.391317 22.182121 -20.375887 49.933319 -16.701805 -16.74353 28.476522 -3e-06 -12.6906 -4e-06 15.56186 -17.938301 2.976238 -0.105922 -1.513854 -4.275882 -5.03904 -5.612872 -2.953557 6e-06 -11.020518 -4e-06 -6.111298 -15.89533 -3.840472 1e-06 1e-06 2e-06 -10.283372 -5.680286 -4.341839 11.028292 -11.302404 -2.372633 -1.384269 -14.238575 -6.320124 -0.625439 -26.924183 -3.827598 -3.649251 -49.101421 -4.347635 -13.708527 -7.363473 -3.720941 18.141148 -14.052739 -3.242671 8e-06 -18.787264 -3e-06 -0.429711 -8.456041 2.555505 0.0 1e-06 0.0 -15.923536 -20.094481 -5.473588 30.41921 -7.190825 1.735929 3e-06 -8.162925 1e-06 -1.8619 -22.861467 -6.167942 -1e-06 -3e-06 -1e-06 125.253731 -1.158443 3.855343 104.463356 0.369618 0.221844 -57.301838 18.816444 -13.803511 -8.12056 1.129031 2.289877 -0.999997 1e-06 -0.0 -45.02676 -0.179069 -1.70162 107.592888 -0.806397 0.030252 -64.020012 1.557687 -9.064292 -3.841563 0.467289 1.880086 -1.000005 0.0 0.0 
0.0 0.0 0.0 0.0 -0.0 0.0 -26.224548 51.800053 168.832886 100.214699 -53.238171 75.088768 19.303244 0.241547 0.819615 -4.865368 -0.577078 -1.460432 15.798883 0.306265 -4.77071 14.434302 3.340938 4.201995 -2.432408 -1.28217 6.615777 -23.379856 -3.456064 7.869172 6e-06 0.0 0.0 -0.220631 0.072985 -0.0115 -0.122948 0.040309 -0.031134 -0.173448 0.096202 0.016983 47.103157 -67.707756 -40.890549 46.267506 4.249441 -50.543797 28.705257 -0.868796 0.045647 15.459925 51.243877 32.232227 17.636621 -26.322731 52.411201 -19.466665 -14.3956 29.410395 -1e-06 -8.774822 -1e-06 16.236197 -18.690168 6.649632 -0.609776 -1.795653 -3.889328 -4.807087 -11.046812 -2.937851 5e-06 -20.976015 -2e-06 -5.019969 -25.03356 -4.031879 7e-06 0.0 0.0 -10.634534 -5.686969 -3.565586 10.573277 -17.922951 -3.113903 3e-06 -13.821206 1e-06 -0.501776 -31.181505 -4.027016 -12.392326 -59.674782 7.619567 -13.982712 -7.150197 -2.875041 13.77273 -8.401493 -3.218244 0.347735 -34.211544 0.771653 -0.963028 -17.733368 2.621019 0.0 -0.0 0.0 -17.346415 -20.095215 -4.201783 21.757559 -1.638376 3.866424 2e-06 -6.338822 1e-06 -1.697587 -22.59174 -6.194007 -0.0 -5e-06 -2e-06 -166.15686 -73.075874 -13.077521 89.500671 -11.455621 -39.683125 12.769652 -0.353004 0.03191 18.082386 63.357513 20.009346 22.182121 -20.375895 49.933319 -16.701815 -16.743532 28.47653 -3e-06 -12.690603 -2e-06 15.595579 -17.901823 2.872568 -0.10592 -1.513855 -4.27588 -5.039042 -5.612872 -2.953557 4e-06 -11.020523 -2e-06 -6.1113 -15.89533 -3.840471 0.0 1e-06 0.0 -10.283371 -5.680288 -4.341837 11.028293 -11.302404 -2.372632 -1.384269 -14.238577 -6.320122 -0.625442 -26.924187 -3.827594 -3.685515 -49.094299 -4.299157 -13.708526 -7.363475 -3.72094 18.14115 -14.052738 -3.242672 6e-06 -18.78727 -2e-06 -0.429712 -8.456045 2.555503 -0.0 1e-06 0.0 -15.923539 -20.094484 -5.473584 30.419218 -7.190825 1.735926 2e-06 -8.162929 1e-06 -1.861904 -22.861469 -6.167941 0.0 -4e-06 -2e-06 126.92598 -1.50847 4.453784 102.833946 0.225356 0.205652 -57.235893 19.589649 -13.617537 -8.197968 1.110036 2.283364 -0.999999 1e-06 -0.0 -49.490181 0.609846 -1.4566 112.394783 -0.488843 0.027515 -64.824608 1.889971 -8.655633 -3.941451 0.481346 1.868299 -1.000006 1e-06 1e-06 
0.0 0.0 0.0 0.0 -0.0 0.0 -26.347382 51.774555 170.275772 99.110909 -53.206947 76.293068 19.536955 0.569024 0.861513 -4.794218 -0.551378 -1.758034 15.956116 1.018364 -4.989376 14.711654 3.610229 4.240993 -2.478739 -1.497072 6.645507 -23.311234 -3.564765 7.983536 7e-06 -1e-06 -0.0 -0.224871 0.032953 -0.004924 -0.179255 0.007683 -0.039618 -0.226123 0.046915 0.039582 45.466282 -66.149895 -39.747658 44.905575 6.635694 -49.196056 23.60129 -1.558406 -0.066984 11.517253 49.375946 26.70406 17.636629 -26.322731 52.41119 -19.466665 -14.395598 29.410393 -0.0 -8.774821 -2e-06 16.298248 -18.661348 6.501962 -0.609776 -1.795654 -3.889328 -4.807089 -11.046809 -2.937851 4e-06 -20.976015 -2e-06 -5.019969 -25.033556 -4.031881 6e-06 0.0 0.0 -10.634533 -5.68697 -3.565589 10.573271 -17.922947 -3.113901 3e-06 -13.821205 0.0 -0.501775 -31.181498 -4.027018 -12.410259 -59.623741 7.525857 -13.982712 -7.150198 -2.875043 13.772728 -8.401493 -3.218241 0.347734 -34.21154 0.771653 -0.963028 -17.733366 2.621019 0.0 1e-06 0.0 -17.346416 -20.095217 -4.201784 21.757557 -1.638376 3.866427 1e-06 -6.338822 0.0 -1.697588 -22.591742 -6.194007 0.0 -5e-06 -2e-06 -166.002579 -74.188538 -13.065869 89.825317 -11.923187 -39.127712 13.29173 -0.310655 0.036609 20.134468 63.871681 22.133144 22.182114 -20.375895 49.933327 -16.701813 -16.743528 28.476534 -4e-06 -12.690601 -0.0 15.601809 -17.854366 2.812641 -0.105921 -1.513858 -4.275882 -5.039041 -5.612871 -2.953556 5e-06 -11.020525 -3e-06 -6.1113 -15.895334 -3.84047 0.0 2e-06 1e-06 -10.283371 -5.680288 -4.341838 11.028295 -11.302407 -2.372633 -1.38427 -14.238581 -6.320124 -0.62544 -26.924191 -3.827598 -3.749406 -48.996777 -4.264274 -13.708526 -7.363477 -3.720938 18.141148 -14.052739 -3.242676 7e-06 -18.78727 -5e-06 -0.429712 -8.456043 2.555503 -0.0 0.0 2e-06 -15.923536 -20.094484 -5.473585 30.419218 -7.190826 1.735925 2e-06 -8.162928 1e-06 -1.8619 -22.861467 -6.167944 -1e-06 -3e-06 -1e-06 128.860916 -1.661486 4.812453 100.980499 0.111587 0.175356 -56.798256 19.980301 -13.410771 -8.201292 1.087682 2.280516 -0.999999 -0.0 -0.0 -53.716366 1.252883 -1.213058 116.533096 -0.278392 0.014104 -65.37822 2.519861 -8.254728 -3.869099 0.500711 1.8443 -1.000004 0.0 1e-06 
